<?xml version="1.0" standalone="no"?>
<!DOCTYPE svg PUBLIC "-//W3C//DTD SVG 20010904//EN"
 "http://www.w3.org/TR/2001/REC-SVG-20010904/DTD/svg10.dtd">
<svg version="1.0" xmlns="http://www.w3.org/2000/svg"
 width="1023.000000pt" height="1023.000000pt" viewBox="0 0 1023.000000 1023.000000"
 preserveAspectRatio="xMidYMid meet">

<g transform="translate(0.000000,1023.000000) scale(0.100000,-0.100000)"
fill="#000000" stroke="none">
<path d="M5763 5884 c-1338 -1339 -2433 -2439 -2433 -2445 0 -14 26 -39 40
-39 7 0 25 -13 40 -30 15 -16 33 -30 40 -30 6 0 29 -18 51 -41 l39 -40 59 60
c33 34 65 61 71 61 6 0 29 18 50 40 21 22 45 40 52 40 7 0 20 9 28 20 8 11 21
20 30 20 9 0 22 9 30 20 8 11 21 20 30 20 9 0 22 9 30 20 8 11 22 20 32 20 10
0 18 5 18 10 0 6 9 10 20 10 11 0 20 5 20 10 0 6 9 10 20 10 11 0 20 5 20 10
0 6 9 10 20 10 11 0 20 5 20 10 0 6 9 10 20 10 11 0 20 5 20 10 0 6 14 10 30
10 17 0 30 5 30 10 0 6 9 10 20 10 11 0 20 5 20 10 0 6 14 10 30 10 17 0 30 5
30 10 0 6 14 10 30 10 17 0 30 5 30 10 0 6 18 10 40 10 22 0 40 5 40 10 0 6
18 10 40 10 22 0 40 5 40 10 0 6 27 10 60 10 33 0 60 4 60 10 0 6 97 10 270
10 173 0 270 -4 270 -10 0 -6 27 -10 60 -10 33 0 60 -4 60 -10 0 -5 18 -10 40
-10 22 0 40 -4 40 -10 0 -5 18 -10 40 -10 22 0 40 -4 40 -10 0 -5 14 -10 30
-10 17 0 30 -4 30 -10 0 -5 14 -10 30 -10 17 0 30 -4 30 -10 0 -5 14 -10 30
-10 17 0 30 -4 30 -10 0 -5 9 -10 20 -10 11 0 20 -4 20 -10 0 -5 9 -10 20 -10
11 0 20 -4 20 -10 0 -5 9 -10 20 -10 11 0 20 -4 20 -10 0 -5 9 -10 20 -10 11
0 20 -4 20 -10 0 -5 9 -10 20 -10 11 0 20 -4 20 -10 0 -5 9 -10 20 -10 11 0
20 -4 20 -10 0 -5 8 -10 18 -10 10 0 24 -9 32 -20 8 -11 21 -20 30 -20 9 0 22
-9 30 -20 8 -11 21 -20 28 -20 7 0 31 -18 52 -40 21 -22 43 -40 49 -40 15 0
281 -267 281 -281 0 -6 14 -24 30 -39 17 -15 30 -34 30 -42 0 -7 9 -20 20 -28
11 -8 20 -21 20 -30 0 -9 9 -22 20 -30 11 -8 20 -22 20 -32 0 -10 5 -18 10
-18 6 0 10 -8 10 -18 0 -10 9 -24 20 -32 11 -8 20 -22 20 -32 0 -10 5 -18 10
-18 6 0 10 -9 10 -20 0 -11 5 -20 10 -20 6 0 10 -9 10 -20 0 -11 5 -20 10 -20
6 0 10 -13 10 -30 0 -16 5 -30 10 -30 6 0 10 -9 10 -20 0 -11 5 -20 10 -20 6
0 10 -13 10 -30 0 -16 5 -30 10 -30 6 0 10 -13 10 -30 0 -16 5 -30 10 -30 6 0
10 -13 10 -30 0 -16 5 -30 10 -30 6 0 10 -18 10 -40 0 -22 5 -40 10 -40 6 0
10 -22 10 -50 0 -27 5 -50 10 -50 6 0 10 -33 10 -80 0 -47 4 -80 10 -80 6 0
10 -60 10 -160 0 -100 -4 -160 -10 -160 -6 0 -10 -33 -10 -80 0 -47 -4 -80
-10 -80 -5 0 -10 -18 -10 -40 0 -33 3 -40 20 -40 11 0 20 5 20 10 0 6 14 10
30 10 17 0 30 5 30 10 0 6 9 10 20 10 11 0 20 5 20 10 0 6 9 10 20 10 11 0 20
5 20 10 0 6 14 10 30 10 17 0 30 5 30 10 0 6 9 10 20 10 11 0 20 5 20 10 0 6
9 10 20 10 11 0 20 5 20 10 0 6 9 10 20 10 11 0 20 5 20 10 0 6 9 10 20 10 11
0 20 5 20 10 0 6 9 10 20 10 11 0 20 5 20 10 0 6 9 10 20 10 11 0 20 5 20 10
0 6 8 10 18 10 10 0 24 9 32 20 8 11 22 20 32 20 10 0 18 5 18 10 0 6 9 10 20
10 11 0 20 5 20 10 0 6 8 10 18 10 10 0 24 9 32 20 8 11 21 20 30 20 9 0 22 9
30 20 8 11 21 20 30 20 9 0 22 9 30 20 8 11 21 20 30 20 9 0 22 9 30 20 8 11
21 20 30 20 9 0 22 9 30 20 8 11 21 20 28 20 7 0 31 18 52 40 21 22 44 40 50
40 7 0 25 14 40 30 15 17 33 30 40 30 6 0 38 27 70 60 32 33 64 60 70 60 13 0
340 327 340 340 0 6 27 38 60 70 33 32 60 64 60 70 0 7 14 25 30 40 17 15 30
33 30 40 0 6 18 29 40 50 22 21 40 45 40 52 0 7 9 20 20 28 11 8 20 21 20 30
0 9 9 22 20 30 11 8 20 21 20 30 0 9 9 22 20 30 11 8 20 21 20 30 0 9 9 22 20
30 11 8 20 21 20 30 0 9 9 22 20 30 11 8 20 22 20 32 0 10 5 18 10 18 6 0 10
9 10 20 0 11 5 20 10 20 6 0 10 8 10 18 0 10 9 24 20 32 11 8 20 22 20 32 0
10 5 18 10 18 6 0 10 9 10 20 0 11 5 20 10 20 6 0 10 9 10 20 0 11 5 20 10 20
6 0 10 9 10 20 0 11 5 20 10 20 6 0 10 9 10 20 0 11 5 20 10 20 6 0 10 9 10
20 0 11 5 20 10 20 6 0 10 9 10 20 0 11 5 20 10 20 6 0 10 9 10 20 0 11 5 20
10 20 6 0 10 14 10 30 0 17 5 30 10 30 6 0 10 9 10 20 0 11 5 20 10 20 6 0 10
9 10 20 0 11 5 20 10 20 6 0 10 14 10 30 0 17 5 30 10 30 6 0 10 14 10 30 0
17 5 30 10 30 6 0 10 9 10 20 0 11 5 20 10 20 6 0 10 14 10 30 0 17 5 30 10
30 6 0 10 14 10 30 0 17 5 30 10 30 6 0 10 14 10 30 0 17 5 30 10 30 6 0 10
18 10 40 0 22 5 40 10 40 6 0 10 14 10 30 0 17 5 30 10 30 6 0 10 18 10 40 0
22 5 40 10 40 6 0 10 18 10 40 0 22 5 40 10 40 6 0 10 23 10 50 0 28 5 50 10
50 6 0 10 23 10 50 0 28 5 50 10 50 6 0 10 27 10 60 0 33 4 60 10 60 6 0 10
37 10 90 0 53 4 90 10 90 6 0 10 60 10 160 0 100 4 160 10 160 6 0 10 43 10
110 0 67 -4 110 -10 110 -6 0 -10 60 -10 160 0 100 -4 160 -10 160 -6 0 -10
33 -10 80 0 47 -4 80 -10 80 -6 0 -10 27 -10 60 0 33 -4 60 -10 60 -5 0 -10
23 -10 50 0 28 -4 50 -10 50 -5 0 -10 23 -10 50 0 28 -4 50 -10 50 -5 0 -10
18 -10 40 0 22 -4 40 -10 40 -5 0 -10 18 -10 40 0 22 -4 40 -10 40 -5 0 -10
18 -10 40 0 22 -4 40 -10 40 -5 0 -10 14 -10 30 0 17 -4 30 -10 30 -5 0 -10
14 -10 30 0 17 -4 30 -10 30 -5 0 -10 14 -10 30 0 17 -4 30 -10 30 -5 0 -10
14 -10 30 0 17 -4 30 -10 30 -5 0 -10 14 -10 30 0 17 -4 30 -10 30 -5 0 -10 9
-10 20 0 11 -4 20 -10 20 -5 0 -10 14 -10 30 0 17 -4 30 -10 30 -5 0 -10 9
-10 20 0 11 -4 20 -10 20 -5 0 -10 14 -10 30 0 17 -4 30 -10 30 -5 0 -10 9
-10 20 0 11 -4 20 -10 20 -5 0 -10 9 -10 20 0 11 -4 20 -10 20 -5 0 -10 9 -10
20 0 11 -4 20 -10 20 -5 0 -10 9 -10 20 0 11 -4 20 -10 20 -5 0 -10 9 -10 20
0 11 -4 20 -10 20 -5 0 -10 9 -10 20 0 11 -4 20 -10 20 -5 0 -10 9 -10 20 0
11 -4 20 -10 20 -5 0 -10 9 -10 20 0 11 -4 20 -10 20 -5 0 -10 9 -10 20 0 11
-4 20 -10 20 -5 0 -10 9 -10 20 0 11 -4 20 -10 20 -5 0 -10 8 -10 18 0 10 -9
24 -20 32 -11 8 -20 21 -20 30 0 9 -9 22 -20 30 -11 8 -20 22 -20 32 0 10 -4
18 -10 18 -5 0 -10 8 -10 18 0 10 -9 24 -20 32 -11 8 -20 21 -20 30 0 9 -9 22
-20 30 -11 8 -20 21 -20 28 0 8 -13 27 -30 42 -16 15 -30 33 -30 40 0 7 -13
25 -30 40 -16 15 -30 33 -30 40 0 7 -13 25 -30 40 -16 15 -30 33 -30 40 0 6
-22 33 -50 60 -27 27 -50 54 -50 59 0 16 -187 201 -202 200 -7 0 -1108 -1096
-2445 -2435z"/>
</g>
</svg>
